<svg width="13" height="13" viewBox="0 0 13 13" fill="none" xmlns="http://www.w3.org/2000/svg">
<path d="M7.11183 3.94875L11.0086 8.40287C11.4685 8.92694 11.0947 9.75 10.3968 9.75L2.60327 9.75C2.44707 9.75013 2.29415 9.70524 2.16281 9.6207C2.03147 9.53615 1.92728 9.41554 1.86272 9.27331C1.79816 9.13108 1.77597 8.97325 1.7988 8.81873C1.82164 8.66421 1.88853 8.51955 1.99146 8.40206L5.88821 3.94956C5.96447 3.86229 6.05852 3.79235 6.16405 3.74442C6.26957 3.6965 6.38413 3.6717 6.50002 3.6717C6.61592 3.6717 6.73047 3.6965 6.836 3.74442C6.94152 3.79235 7.03557 3.86229 7.11183 3.94956V3.94875Z" fill="#4CD62B"/>
</svg>
