<svg width="152" height="31" viewBox="0 0 152 31" fill="none" xmlns="http://www.w3.org/2000/svg">
<g clip-path="url(#clip0)">
<path d="M65.2427 13.4057L63.0403 23.5188H57.3031L59.5055 13.4057C59.6781 12.6108 59.578 12.4642 58.765 12.4642H56.6938C55.886 12.4642 55.7169 12.6108 55.546 13.3855C55.546 13.3855 55.546 13.3989 55.546 13.4057L53.3436 23.5188H47.6013L49.8054 13.4057C49.978 12.6108 49.8778 12.4642 49.0632 12.4642H46.992C46.1773 12.4642 46.0133 12.6124 45.8407 13.4057L43.6366 23.5188H37.8994L41.2806 7.9946H45.9408L46.6796 9.32842C47.1045 8.89184 47.6189 8.54744 48.1893 8.31764C48.7596 8.08783 49.3732 7.97777 49.99 7.9946H51.1792C53.423 7.9946 54.9367 8.94612 55.4787 10.5545C56.4815 8.76592 57.9348 7.9946 59.6901 7.9946H60.8811C64.252 7.9946 65.9659 10.1183 65.2427 13.4057Z" fill="#5965E0"/>
<path d="M82.739 13.4056L81.7155 18.1076C80.9992 21.395 78.3584 23.5187 74.9841 23.5187H70.638C67.2689 23.5187 65.555 21.3933 66.2713 18.1059L67.2948 13.4056C68.0094 10.1182 70.6501 7.99451 74.0262 7.99451H78.3791C81.7414 7.99451 83.457 10.1182 82.739 13.4056ZM76.9966 13.4056C77.1692 12.6107 77.0691 12.4642 76.2562 12.4642H74.185C73.3703 12.4642 73.2063 12.6124 73.0337 13.4056L72.0085 18.1059C71.8359 18.9008 71.9377 19.0474 72.7507 19.0474H74.8219C75.6348 19.0474 75.8005 18.8992 75.9731 18.1059L76.9966 13.4056Z" fill="#5965E0"/>
<path d="M118.546 12.1695C118.336 13.052 117.829 13.8405 117.106 14.4093L114.184 16.7671C113.484 17.342 112.602 17.6653 111.687 17.6833H107.641L107.55 18.0992C107.377 18.8941 107.477 19.0407 108.292 19.0407H117.046L116.073 23.512H106.172C102.803 23.512 101.089 21.3866 101.805 18.0992L102.829 13.3989C103.545 10.1115 106.186 7.98779 109.56 7.98779H113.917C117.277 7.99453 119.015 10.007 118.546 12.1695ZM112.536 13.4056C112.709 12.6107 112.608 12.4642 111.794 12.4642H109.723C108.911 12.4625 108.739 12.6124 108.566 13.4056L108.221 15.024H111.638C111.792 15.0178 111.939 14.963 112.057 14.8679C112.175 14.7727 112.259 14.6425 112.294 14.4969L112.536 13.4056Z" fill="#5965E0"/>
<path d="M124.995 20.8831C124.677 22.3398 123.498 23.5204 121.715 23.5204C119.933 23.5204 119.27 22.3415 119.587 20.8831C119.905 19.4246 121.084 18.2474 122.867 18.2474C124.65 18.2474 125.307 19.4246 124.995 20.8831Z" fill="#4CD62B"/>
<path d="M137.305 7.99459L136.331 12.4626L133.915 23.5171H128.179L130.596 12.4626H127.732L128.708 7.99291L137.305 7.99459ZM133.045 5.09622C132.051 4.01839 132.355 2.16923 133.72 0.968452C135.085 -0.232323 136.999 -0.330002 137.999 0.749517C138.998 1.82904 138.689 3.6782 137.324 4.87897C135.959 6.07975 134.041 6.17743 133.045 5.09622Z" fill="#5965E0"/>
<path d="M146.511 10.2294L144.796 18.106C144.623 18.9009 144.723 19.0474 145.536 19.0474H149.104L148.13 23.5188H143.42C140.051 23.5188 138.335 21.3934 139.052 18.106L140.767 10.2294H138.598L139.571 5.75807H141.746L142.543 2.0968H148.286L147.488 5.75807H152.003L151.025 10.2294H146.511Z" fill="#5965E0"/>
<path d="M15.5097 2.27698H22.7899L16.7334 30.4H9.45312L15.5097 2.27698Z" fill="#5965E0"/>
<path d="M26.1913 2.27698H33.4716L28.7527 24.312H21.4707L26.1913 2.27698Z" fill="#5965E0"/>
<path d="M4.7206 2.27698H12.0009L7.28199 24.312H0L4.7206 2.27698Z" fill="#5965E0"/>
<path d="M103.984 7.99451L93.3471 23.5187H87.4787L83.5986 7.99451H89.883L91.5727 18.1885L97.7 8.00293L103.984 7.99451Z" fill="#5965E0"/>
</g>
<defs>
<clipPath id="clip0">
<rect width="152" height="30.4" fill="white"/>
</clipPath>
</defs>
</svg>
